<?xml version="1.0" encoding="UTF-8" standalone="no"?>
<!-- Creator: CorelDRAW -->

<svg
   xml:space="preserve"
   width="1537.5068"
   height="627.45105"
   style="clip-rule:evenodd;fill-rule:evenodd;image-rendering:optimizeQuality;shape-rendering:geometricPrecision;text-rendering:geometricPrecision"
   viewBox="0 0 1537.5068 627.45105"
   version="1.1"
   id="svg1"
   sodipodi:docname="mouse-icon.svg"
   inkscape:version="1.3 (0e150ed6c4, 2023-07-21)"
   xmlns:inkscape="http://www.inkscape.org/namespaces/inkscape"
   xmlns:sodipodi="http://sodipodi.sourceforge.net/DTD/sodipodi-0.dtd"
   xmlns="http://www.w3.org/2000/svg"
   xmlns:svg="http://www.w3.org/2000/svg"><sodipodi:namedview
   id="namedview1"
   pagecolor="#ffffff"
   bordercolor="#000000"
   borderopacity="0.25"
   inkscape:showpageshadow="2"
   inkscape:pageopacity="0.0"
   inkscape:pagecheckerboard="0"
   inkscape:deskcolor="#d1d1d1"
   inkscape:zoom="0.24755859"
   inkscape:cx="761.4359"
   inkscape:cy="260.54438"
   inkscape:window-width="1280"
   inkscape:window-height="730"
   inkscape:window-x="-6"
   inkscape:window-y="-6"
   inkscape:window-maximized="1"
   inkscape:current-layer="Layer_x0020_1" />&#10; <defs
   id="defs1">&#10;  <style
   type="text/css"
   id="style1">&#10;   <![CDATA[
    .str0 {stroke:#202020;stroke-width:3;stroke-linecap:round;stroke-linejoin:round}
    .fil7 {fill:none}
    .fil6 {fill:black}
    .fil8 {fill:#1A191A}
    .fil3 {fill:#4C4C4C}
    .fil0 {fill:#656666}
    .fil4 {fill:#767676}
    .fil1 {fill:#7E7E7E}
    .fil5 {fill:#A8A8A8}
    .fil2 {fill:#D6D6D6}
    .fil9 {fill:white}
    .fil11 {fill:#656666;fill-rule:nonzero}
    .fil10 {fill:#7E7E7E;fill-rule:nonzero}
   ]]>&#10;  </style>&#10; </defs>&#10; <g
   id="Layer_x0020_1"
   inkscape:label="Layer 1"
   inkscape:groupmode="layer"
   transform="translate(-262.07315,-761.6159)">&#10;  <metadata
   id="CorelCorpID_0Corel-Layer" />&#10;  <g
   id="_261645344">&#10;   <path
   id="_499724112"
   class="fil0"
   d="m 1595.53,1183.15 c 13.1953,-13.1941 52.3725,-23.0646 73.8201,-37.4823 30.1618,-20.2725 42.5705,-37.213 36.9213,-61.9548 -65.9847,-85.9276 -160.302,-152.004 -262.043,-200.189 -21.4725,-62.6882 -46.0075,-114.001 -82.2296,-121.908 -22.2236,3.67323 -26.3799,37.78 -8.6244,108.777 -22.7433,9.48544 -44.3552,5.38937 -64.9949,-10.376 -53.3256,-59.0115 -102.193,-75.476 -147.403,-57.0662 -33.9969,17.8075 -49.1528,38.5902 -43.1729,62.7095 -147.88402,8.28308 -287.66802,38.2583 -356.04802,140.499 -32.4862,15.1453 -66.9461,113.491 -50.5477,281.432 l 47.1,10.4055 c 45.9319,44.6244 127.867,59.2453 222.242,63.4985 h 126.99602 c 111.43,21.8445 194.98,-35.8949 302.085,-61.7315 38.2902,-28.5733 71.5052,-48.9012 88.5922,-84.5434 37.1646,-21.3484 78.2044,-21.3803 117.307,-32.0717 z" />&#10;   <path
   id="_499724232"
   class="fil1"
   d="m 1595.53,1183.15 c 0.5776,-0.5764 1.2059,-1.1468 1.8803,-1.7114 l -17.3882,-19.7091 c -340.592,157.48 -590.76498,190.859 -890.99698,99.7017 0.59173,8.5264 1.31102,17.2406 2.18268,26.1614 96.8091,41.8701 109.756,70.9501 269.342,73.904 h 126.996 c 111.43,21.8445 194.98,-35.8949 302.085,-61.7315 38.2902,-28.5733 71.5052,-48.9012 88.5922,-84.5434 37.1646,-21.3484 78.2044,-21.3803 117.307,-32.0717 z" />&#10;   <path
   id="_499724088"
   class="fil2"
   d="m 690.895,1284.33 c 55.2437,25.2532 131.019,53.9268 193.653,60.0095 14.3811,2.9953 36.5185,9.3697 58.0796,-1.9654 9.12166,-4.7952 24.8575,-3.3106 34.2626,-1.9051 27.4996,18.5669 52.2591,-6.7547 70.6146,27.1855 -10.1858,2.1673 -28.2969,-10.1315 -23.4555,5.987 -8.661,10.6146 -22.6973,12.6272 -40.2803,8.9705 l -10.1941,-8.1567 c -1.04528,19.9547 -22.826,6.4606 -34.2402,9.691 -9.92481,-16.6252 -35.3315,-15.1878 -66.6721,-6.8256 l 0.0756,4.2815 c -7.05119,3.3496 -14.3764,7.8342 -22.3205,3.1547 l -4.49055,-11.6752 c -53.3941,9.0626 -101.065,-11.4508 -146.404,-44.0115 -113.926,49.4528 -291.633,8.5488 -437.45,12.8221 v -31.7492 c 148.162,-10.5827 365.325,37.6855 428.822,-25.813 z" />&#10;   <path
   id="_499723704"
   class="fil2"
   d="m 1064.89,1309.58 c 25.2945,8.8228 41.4059,0.7701 58.7977,-8.4732 10.076,26.8984 32.7461,51.3225 58.7008,53.7166 5.915,-7.3004 12.2398,-10.8732 19.3146,-7.7268 7.0819,8.1201 22.9925,5.4555 40.5532,0.7736 6.065,13.2425 32.3847,8.8418 52.2296,27.887 -10.1457,6.5173 -23.2488,4.7185 -38.6929,8.2807 -24.7299,5.7048 -25.6229,-4.298 -41.2512,-10.3973 -5.8252,8.7 -15.0059,12.7866 -26.0752,14.2713 l -32.0303,0.5918 c -28.2921,2.0669 -43.6524,-1.6158 -48.3284,-10.0453 l -2.3433,7.7976 -8.6823,-0.1819 c -20.2429,-24.1299 -27.5882,-48.0992 -32.1922,-76.4942 z" />&#10;   <path
   id="_499723320"
   class="fil2"
   d="m 1327.64,1298.29 c 26.9681,0.385 52.6441,-6.9756 77.3977,-19.8957 7.9961,22.6028 -22.2685,44.7898 23.9882,67.8083 9.724,2.4685 15.7736,0.8988 24.124,-5.224 12.0189,-3.8221 13.4669,7.0535 20.2004,10.5815 10.7728,-8.7685 22.1953,-13.8413 34.4693,-14.1012 12.8043,5.6941 24.45,14.8571 34.1941,29.7343 1.0949,12.3685 -6.3921,17.0752 -22.4433,14.1354 -9.7925,-6.0095 -18.6673,-26.7166 -29.3776,-18.0307 l -9.7925,16.4646 -18.8008,0.7831 c -20.6492,1.2685 -33.5398,-1.3394 -37.1055,-8.6138 -10.3807,9.6141 -24.163,10.5331 -39.6674,7.0464 l -36.8185,-45.4359 -20.3681,-35.2524 z" />&#10;   <path
   id="_499723560"
   class="fil3"
   d="m 1267.24,838.623 c -45.1784,-41.3918 -87.0922,-51.6237 -126.26,-35.6752 -21.926,11.4839 -36.0118,24.2079 -41.6492,38.2642 -1.0075,7.45867 -1.5236,15.5917 -1.5236,24.4453 0,70.1375 75.7949,144.817 128.399,144.817 52.604,0 51.8374,-42.9307 51.8374,-113.069 0,-21.2126 -3.9059,-41.2063 -10.8036,-58.7823 z" />&#10;   <path
   id="_499723512"
   class="fil1"
   d="m 1267.24,838.623 c -28.2591,-25.891 -55.2402,-39.5894 -81.0709,-42.3166 -11.6268,8.42009 -19.474,17.4366 -23.341,27.0827 -1.0075,7.45867 -1.5248,15.5917 -1.5248,24.4453 0,61.0075 57.3449,125.44 106.893,141.186 10.102,-19.298 9.8469,-50.8619 9.8469,-91.6146 0,-21.2126 -3.9059,-41.2063 -10.8036,-58.7823 z" />&#10;   <path
   id="_499723776"
   class="fil4"
   d="m 1597.47,1181.38 c 14.7555,-12.3272 51.3969,-21.9496 71.876,-35.7154 30.1618,-20.2725 42.5705,-37.213 36.9213,-61.9548 -19.1185,-24.8965 -40.6193,-48.1229 -63.9863,-69.7347 -46.1256,15.6508 -78.5894,52.9701 -78.5894,96.5268 0,27.3626 12.8173,52.2626 33.7784,70.878 z" />&#10;   <path
   id="_499722432"
   class="fil5"
   d="m 1622.41,1167.81 c 15.8977,-6.8776 34.4362,-13.7386 46.9441,-22.1469 30.1618,-20.2725 42.5705,-37.213 36.9213,-61.9548 -10.1221,-13.1823 -20.9126,-25.8945 -32.2937,-38.1485 -36.7441,15.5339 -61.8815,46.9961 -61.8815,83.2902 0,13.9039 3.691,27.0981 10.3099,38.9599 z" />&#10;   <ellipse
   id="_499722336"
   class="fil6"
   cx="1458.39"
   cy="1011.83"
   rx="41.889702"
   ry="35.847099" />&#10;   <path
   id="_499723080"
   class="fil7 str0"
   d="m 1589.68,1121.21 c -55.4351,-16.9217 -106.38,-20.2158 -151.488,-5.8051" />&#10;   <path
   id="_499722480"
   class="fil7 str0"
   d="m 1595.53,1096.17 c -56.6327,-12.3331 -107.675,-11.4508 -151.456,6.6" />&#10;   <path
   id="_499722888"
   class="fil7 str0"
   d="m 1777.89,974.144 c -54.5717,19.526 -97.4044,47.302 -124.986,85.7965" />&#10;   <path
   id="_499722648"
   class="fil7 str0"
   d="m 1798.08,1015.66 c -57.5752,6.6591 -105.586,24.013 -141.169,55.2603" />&#10;   <ellipse
   id="_499723008"
   class="fil8"
   cx="1458.39"
   cy="1011.83"
   rx="29.721701"
   ry="25.434299" />&#10;   <path
   id="_261645656"
   class="fil9"
   d="m 1467.14,987.518 c 9.3756,2.46851 16.7752,8.8004 19.6595,16.8236 -2.3303,4.4161 -7.5201,7.4882 -13.5496,7.4882 -8.2075,0 -14.8606,-5.6929 -14.8606,-12.71691 0,-5.15906 3.5917,-9.60119 8.7508,-11.5949 z" />&#10;   <path
   id="_261645536"
   class="fil10"
   d="m 1049.95,1304.11 c -1.4504,-0.7571 -3.2421,-0.1949 -3.9992,1.2555 -0.7571,1.4504 -0.1961,3.2421 1.2543,3.9992 33.5103,17.5488 67.7044,5.1733 97.6477,-13.1173 1.3984,-0.8539 1.8414,-2.6823 0.9874,-4.0819 -0.8539,-1.3984 -2.6823,-1.8413 -4.0819,-0.9874 -30.724,11.537 -58.1516,19.2862 -91.8083,12.9319 z" />&#10;   <path
   id="_428076784"
   class="fil11"
   d="m 1314.13,1291.76 c -1.4504,-0.7571 -3.2421,-0.1961 -3.9992,1.2555 -0.7571,1.4504 -0.1961,3.2421 1.2555,3.9992 33.5091,17.5477 67.7032,5.1733 97.6465,-13.1173 1.3996,-0.8551 1.8425,-2.6823 0.9874,-4.0819 -0.8539,-1.3996 -2.6823,-1.8425 -4.0807,-0.9874 -30.7252,11.5358 -58.1528,19.2851 -91.8095,12.9319 z" />&#10;  </g>&#10; </g>&#10; <rect
   class="fil7"
   width="2048"
   height="2048"
   id="rect1"
   x="-262.07315"
   y="-761.61591" />&#10;</svg>
